<svg xmlns="http://www.w3.org/2000/svg" version="1.1"
     viewBox="0 0 32 32">
    <path fill="#0654ba"
          d="M15.991 12.986c0 0 0 0 0 0-0.625 0-1.132 0.507-1.132 1.132 0 0 0 0 0 0v8.737c0.074 0.56 0.548 0.987 1.122 0.987s1.048-0.427 1.122-0.981l0.001-8.743c0-0 0-0 0-0 0-0.618-0.496-1.121-1.112-1.131z"></path>
    <path fill="#0654ba"
          d="M17.401 9.146c0 0.748-0.606 1.354-1.354 1.354s-1.354-0.606-1.354-1.354c0-0.748 0.606-1.354 1.354-1.354s1.354 0.606 1.354 1.354z"></path>
    <path fill="#0654ba"
          d="M15.991 32c-8.842 0-16.009-7.168-16.009-16.009s7.168-16.009 16.009-16.009c8.842 0 16.009 7.168 16.009 16.009 0 0.007 0 0.013 0 0.020-0.011 8.833-7.174 15.99-16.009 15.99 0 0 0 0 0 0zM15.991 2.319c0 0 0 0 0 0-7.561 0-13.69 6.129-13.69 13.69s6.129 13.69 13.69 13.69c7.561 0 13.69-6.129 13.69-13.69s-6.129-13.69-13.69-13.69z"></path>
</svg>